<svg xmlns="http://www.w3.org/2000/svg" viewBox="0 0 100 100" width="100" height="100" fill="none"><defs><linearGradient id="nvitBlueAnimated" x1="20" y1="15" x2="82" y2="84" gradientUnits="userSpaceOnUse"><stop offset="0" stop-color="#3B82F6"><animate attributeName="stop-color" values="#3B82F6;#2563EB;#3B82F6" dur="5.5s" repeatCount="indefinite"/></stop><stop offset="1" stop-color="#2563EB"><animate attributeName="stop-color" values="#2563EB;#3B82F6;#2563EB" dur="5.5s" repeatCount="indefinite"/></stop></linearGradient><linearGradient id="nvitSilverAnimated" x1="20" y1="20" x2="80" y2="80" gradientUnits="userSpaceOnUse"><stop offset="0" stop-color="#F3F4F6"/><stop offset="1" stop-color="#D1D5DB"/></linearGradient></defs><path d="M18 18 C18 16.9 18.9 16 20 16 H38 C39.1 16 40 16.9 40 18 V82 C40 83.1 39.1 84 38 84 H20 C18.9 84 18 83.1 18 82 V18Z" fill="url(#nvitSilverAnimated)"/><path d="M20 16 H40 L82 84 H62 L20 30 V16Z" fill="url(#nvitBlueAnimated)"/><path d="M60 16 H80 C81.1 16 82 16.9 82 18 V82 C82 83.1 81.1 84 80 84 H62 C60.9 84 60 83.1 60 82 V54 L60 16Z" fill="url(#nvitSilverAnimated)"/><circle cx="80" cy="16" r="5" fill="#2563EB"><animate attributeName="r" values="5;5.55;5" dur="2.8s" repeatCount="indefinite"/><animate attributeName="opacity" values="0.85;1;0.85" dur="2.8s" repeatCount="indefinite"/></circle></svg>
